<svg width="33" height="18" viewBox="0 0 33 18" fill="none" xmlns="http://www.w3.org/2000/svg">
<rect x="0.5" y="0.5" width="32" height="17" rx="3.5" fill="#FF5630"/>
<rect x="0.5" y="0.5" width="32" height="17" rx="3.5" stroke="#FF5630"/>
<path d="M14.2461 3.49448H15.3608V8.9268H14.2461V3.49448ZM13.2724 7.40608L13.3221 8.21409C11.2296 8.53315 8.78482 8.60773 6.9409 8.60359L6.81244 7.70856C7.21438 7.70856 7.64117 7.70442 8.08869 7.69613V5.06077H7.09835V4.19061H12.7959V5.06077H11.7931V7.54696C12.3028 7.50967 12.8 7.46409 13.2724 7.40608ZM10.724 5.06077H9.15775V7.67541C9.67156 7.65884 10.1978 7.64226 10.724 7.61326V5.06077ZM9.52239 12.0055V13H15.7254V13.895H8.42432V11.1934H14.2586V10.2776H8.39532V9.40746H15.3608V12.0055H9.52239ZM21.5637 5.90608C20.88 7.14917 19.3759 8.03591 17.6687 8.30939L17.2212 7.40193C19.2806 7.12431 20.9794 5.83149 20.9794 4.41851V3.84668H22.1397V4.41851C22.1397 5.81492 23.8427 7.12431 25.9104 7.40193L25.467 8.30939C23.7515 8.03591 22.2474 7.14088 21.5637 5.90608ZM16.7695 9.34116H26.3413V10.261H22.0775V13.9945H20.9836V10.261H16.7695V9.34116Z" fill="white"/>
</svg>
