<svg width="66" height="41" viewBox="0 0 66 41" fill="none" xmlns="http://www.w3.org/2000/svg">
<rect x="1" y="1" width="64" height="39" rx="3" fill="#4B89DC"/>
<rect x="1" y="1" width="64" height="39" rx="3" stroke="#4B89DC" stroke-width="2"/>
<path d="M18.1663 15.9641H30.3072V18.0608H15.5807V10.5691H30.1912V12.6823H18.1663V15.9641ZM13.2022 21.8481V19.7182H32.5365V21.8481H13.2022ZM22.8238 23.3149C27.4067 23.3149 30.158 24.7072 30.1663 27.1768C30.158 29.663 27.4067 31.0635 22.8238 31.0552C18.2243 31.0635 15.4481 29.663 15.4481 27.1768C15.4481 24.7072 18.2243 23.3149 22.8238 23.3149ZM22.8238 29.0497C25.8652 29.0497 27.5475 28.4199 27.5641 27.1768C27.5475 25.9751 25.8652 25.3204 22.8238 25.3122C19.7492 25.3204 18.0834 25.9751 18.1 27.1768C18.0834 28.4199 19.7492 29.0497 22.8238 29.0497ZM44.4617 24.0939V22.2873H48.6136V9.92265H51.2324V25.9503H48.6136V24.0939H44.4617ZM40.2766 18.1602C37.144 18.1602 34.981 16.7182 34.981 14.4475C34.981 12.2099 37.1357 10.6851 40.2766 10.6934C43.3677 10.6851 45.539 12.2099 45.5556 14.4475C45.539 16.7182 43.3677 18.1602 40.2766 18.1602ZM40.2766 12.616C38.586 12.6077 37.4423 13.2956 37.4589 14.4475C37.4423 15.5994 38.586 16.2624 40.2766 16.2624C41.9009 16.2624 43.0528 15.5994 43.0694 14.4475C43.0528 13.2956 41.9009 12.6077 40.2766 12.616ZM41.8346 25.3619H39.2158V21.4337C37.2434 21.5166 35.3539 21.5249 33.6882 21.5249L33.3733 19.4448C37.2766 19.4199 42.5307 19.3785 47.0224 18.8066L47.1799 20.6796C45.4396 20.9696 43.6246 21.1602 41.8346 21.2928V25.3619ZM38.7931 24.4006V28.5608H51.7213V30.674H36.1827V24.4006H38.7931Z" fill="white"/>
</svg>
