<svg width="40" height="20" viewBox="0 0 40 20" fill="none" xmlns="http://www.w3.org/2000/svg">
<rect x="0.5" y="0.5" width="39" height="19" rx="3.5" fill="#FFEBE6"/>
<rect x="0.5" y="0.5" width="39" height="19" rx="3.5" stroke="#FFEBE6"/>
<path d="M17.3705 3.91022H18.6709V10.2479H17.3705V3.91022ZM16.2345 8.47376L16.2925 9.41644C13.8512 9.78867 10.999 9.87569 8.84771 9.87086L8.69785 8.82666C9.16677 8.82666 9.6647 8.82182 10.1868 8.81215V5.73757H9.03141V4.72237H15.6785V5.73757H14.5086V8.63812C15.1032 8.59461 15.6833 8.54144 16.2345 8.47376ZM13.2614 5.73757H11.434V8.78798C12.0335 8.76865 12.6474 8.74931 13.2614 8.71547V5.73757ZM11.8595 13.8398V15H19.0963V16.0442H10.5784V12.8923H17.385V11.8239H10.5445V10.8087H18.6709V13.8398H11.8595ZM25.9077 6.72376C25.11 8.17403 23.3552 9.20856 21.3635 9.52762L20.8414 8.46892C23.244 8.14503 25.226 6.63674 25.226 4.98826V4.32113H26.5796V4.98826C26.5796 6.6174 28.5665 8.14503 30.9788 8.46892L30.4615 9.52762C28.4601 9.20856 26.7053 8.16436 25.9077 6.72376ZM20.3144 10.7314H31.4815V11.8046H26.5071V16.1602H25.2309V11.8046H20.3144V10.7314Z" fill="#FF5630"/>
</svg>
