<svg width="66" height="41" viewBox="0 0 66 41" fill="none" xmlns="http://www.w3.org/2000/svg">
<rect x="1" y="1" width="64" height="39" rx="3" fill="white"/>
<rect x="1" y="1" width="64" height="39" rx="3" stroke="#0099CC" stroke-width="2"/>
<path d="M15.1995 21.326L14.2547 19.2707C18.4812 18.7569 21.2575 16.5939 21.5227 14.4807H14.9923V12.4088H21.5392V9.91436H24.1249V12.4088H30.705V14.4807H24.1663C24.4232 16.5691 27.1829 18.7569 31.4011 19.2707L30.4564 21.326C26.9509 20.8867 24.2326 19.3453 22.8486 17.3066C21.473 19.3702 18.7299 20.8867 15.1995 21.326ZM13.2022 22.6188H32.5033V24.7569H24.1249V31.105H21.5392V24.7569H13.2022V22.6188ZM50.0556 18.1768H53.1965V20.3398H50.0556V31.0387H47.4451V9.90608H50.0556V18.1768ZM34.4838 12.1022H44.4617C44.4451 18.326 41.8677 23.7956 34.8235 27.2597L33.3567 25.2541C38.5114 22.6685 41.2959 19.0718 41.8097 14.2486H34.4838V12.1022Z" fill="#0099CC"/>
</svg>
