<svg width="66" height="41" viewBox="0 0 66 41" fill="none" xmlns="http://www.w3.org/2000/svg">
<rect x="1" y="1" width="64" height="39" rx="3" fill="#0099CC"/>
<rect x="1" y="1" width="64" height="39" rx="3" stroke="#0099CC" stroke-width="2"/>
<path d="M28.3597 17.3978V9.90608H30.9785V31.1215H28.3597V19.5276H24.2906V17.3978H28.3597ZM20.984 14.1077V15.5331C20.9757 19.1878 22.9647 23.058 26.3707 24.558L24.8293 26.6215C22.368 25.453 20.6111 23.1077 19.6829 20.3066C18.7547 23.2983 16.9481 25.8177 14.4785 27.0608L12.9205 25.0055C16.31 23.4144 18.3155 19.4033 18.3238 15.5331V14.1077H13.7906V11.9945H25.5337V14.1077H20.984ZM50.1799 9.90608V14.9862H53.1385V17.1243H50.1799V22.5359H47.5611V9.90608H50.1799ZM39.8125 17.6464C38.876 19.8674 37.0943 21.6243 34.5501 22.4779L33.2241 20.4144C36.6385 19.3122 38.4285 16.5608 38.4451 13.7431V13.4779H33.9534V11.3729H45.4561V13.4779H41.0639V13.7265C41.0639 16.3122 42.7379 18.7486 46.0445 19.7597L44.8097 21.8066C42.4313 21.0608 40.749 19.5525 39.8125 17.6464ZM43.2849 23C47.6771 23 50.3705 24.4751 50.3705 27.011C50.3705 29.5635 47.6771 31.0635 43.2849 31.0552C38.8512 31.0635 36.1081 29.5635 36.1164 27.011C36.1081 24.4751 38.8512 23 43.2849 23ZM43.2849 29.0083C46.1854 29.0166 47.8097 28.3204 47.8097 27.011C47.8097 25.7265 46.1854 25.047 43.2849 25.047C40.376 25.047 38.7103 25.7265 38.7186 27.011C38.7103 28.3204 40.376 29.0166 43.2849 29.0083Z" fill="white"/>
</svg>
