<svg width="66" height="41" viewBox="0 0 66 41" fill="none" xmlns="http://www.w3.org/2000/svg">
<rect x="1" y="1" width="64" height="39" rx="3" fill="#ED5563"/>
<rect x="1" y="1" width="64" height="39" rx="3" stroke="#ED5563" stroke-width="2"/>
<path d="M29.7934 18.3425H33.0586V20.489H29.7934V31.0718H27.216V9.90608H29.7934V18.3425ZM18.0917 10.2044H20.6939V13.1464H25.5834V15.2514H13.0862V13.1464H18.0917V10.2044ZM19.4094 16.6188C22.4591 16.6188 24.7216 18.6823 24.7381 21.6077C24.7216 24.5331 22.4591 26.5884 19.4094 26.5884C16.3183 26.5884 14.0475 24.5331 14.0641 21.6077C14.0475 18.6823 16.3183 16.6188 19.4094 16.6188ZM19.4094 24.4337C21.042 24.4503 22.2271 23.3481 22.2437 21.6077C22.2271 19.8923 21.042 18.7569 19.4094 18.7569C17.752 18.7569 16.542 19.8923 16.5586 21.6077C16.542 23.3481 17.752 24.4503 19.4094 24.4337ZM44.4617 24.0939V22.2873H48.6136V9.92265H51.2324V25.9503H48.6136V24.0939H44.4617ZM40.2766 18.1602C37.144 18.1602 34.981 16.7182 34.981 14.4475C34.981 12.2099 37.1357 10.6851 40.2766 10.6934C43.3677 10.6851 45.539 12.2099 45.5556 14.4475C45.539 16.7182 43.3677 18.1602 40.2766 18.1602ZM40.2766 12.616C38.586 12.6077 37.4423 13.2956 37.4589 14.4475C37.4423 15.5994 38.586 16.2624 40.2766 16.2624C41.9009 16.2624 43.0528 15.5994 43.0694 14.4475C43.0528 13.2956 41.9009 12.6077 40.2766 12.616ZM41.8346 25.3619H39.2158V21.4337C37.2434 21.5166 35.3539 21.5249 33.6882 21.5249L33.3733 19.4448C37.2766 19.4199 42.5307 19.3785 47.0224 18.8066L47.1799 20.6796C45.4396 20.9696 43.6246 21.1602 41.8346 21.2928V25.3619ZM38.7931 24.4006V28.5608H51.7213V30.674H36.1827V24.4006H38.7931Z" fill="white"/>
</svg>
