<svg width="84" height="20" viewBox="0 0 84 20" fill="none" xmlns="http://www.w3.org/2000/svg">
<rect x="0.5" y="0.5" width="83" height="19" rx="3.5" fill="#F6D000"/>
<rect x="0.5" y="0.5" width="83" height="19" rx="3.5" stroke="#585757"/>
<path d="M17.0652 3.91211V10.1191H15.7391V8.9707H12.6492V7.95898H15.7391V6.63281H12.8133C12.0545 8.52637 10.202 9.78418 7.48125 10.4199L7.04375 9.35352C9.99004 8.69043 11.5691 7.30957 11.7742 5.52539H7.68633V4.47266H13.2098C13.2098 4.86914 13.1756 5.24512 13.1141 5.60742H15.7391V3.91211H17.0652ZM17.0652 10.666V13.7695H10.3797V15H17.4344V16.0391H9.08086V12.7852H15.7527V11.7051H9.05352V10.666H17.0652ZM29.1856 3.91211V16.1484H27.9278V3.91211H29.1856ZM26.6837 4.17188V15.5469H25.4532V9.32617H23.5528V8.24609H25.4532V4.17188H26.6837ZM22.3634 7.30273C22.3634 9.41504 23.211 11.5137 24.9337 12.5117L24.1544 13.4688C22.9786 12.7715 22.1788 11.5205 21.7481 10.0371C21.3106 11.6436 20.4835 13.0039 19.2872 13.7559L18.4942 12.7988C20.2305 11.7324 21.1055 9.49707 21.1055 7.30273V6.3457H18.8634V5.2793H24.4688V6.3457H22.3634V7.30273ZM41.6752 10.1055V11.1582H36.8216V13.5098H35.5228V11.1582H30.4779V10.1055H41.6752ZM40.2259 4.47266V8.84766H31.8998V4.47266H40.2259ZM33.1849 5.51172V7.79492H38.9408V5.51172H33.1849ZM40.431 14.8359V15.9023H31.8588V12.3887H33.1713V14.8359H40.431ZM46.5631 7.52148C46.5631 9.44238 47.8551 11.6094 49.7077 12.4844L48.9694 13.5234C47.5817 12.8535 46.4948 11.4658 45.9479 9.85938C45.3873 11.6025 44.2526 13.127 42.8444 13.8242L42.0924 12.7852C43.9313 11.8965 45.278 9.5791 45.278 7.52148V6.22266H42.5299V5.14258H49.2291V6.22266H46.5631V7.52148ZM51.8541 3.91211V8.7793H53.8092V9.87305H51.8541V16.1621H50.5416V3.91211H51.8541ZM55.8808 4.41797V6.09961H59.08V4.41797H60.3652V9.77734H54.5956V4.41797H55.8808ZM55.8808 8.73828H59.08V7.09766H55.8808V8.73828ZM63.7421 3.91211V6.46875H65.5195V7.54883H63.7421V10.2012H62.4433V3.91211H63.7421ZM63.7421 10.748V13.8379H57.1386V15H64.1796V16.0391H55.8534V12.8672H62.4706V11.7871H55.8124V10.748H63.7421ZM72.1574 8.21875V9.91406H77.1066V10.9668H65.9367V9.91406H70.8723V8.21875H72.1574ZM72.1848 4.60938C72.1779 6.16797 74.0852 7.52832 76.4504 7.84961L75.9582 8.875C74.0305 8.56055 72.3078 7.6377 71.5285 6.27734C70.7287 7.63086 69.0061 8.56738 67.0715 8.875L66.5793 7.84961C68.9377 7.52832 70.8518 6.1543 70.8586 4.60938V4.11719H72.1848V4.60938ZM71.5148 11.8691C74.1672 11.8691 75.76 12.6484 75.7531 14.0156C75.76 15.3828 74.174 16.1416 71.5148 16.1348C68.8488 16.1416 67.2629 15.3828 67.2629 14.0156C67.2629 12.6484 68.8557 11.8691 71.5148 11.8691ZM71.5148 12.8809C69.6486 12.874 68.5822 13.2705 68.5891 14.0156C68.5822 14.7471 69.6418 15.1436 71.5148 15.1367C73.3947 15.1436 74.4406 14.7471 74.4406 14.0156C74.4406 13.2705 73.3811 12.874 71.5148 12.8809Z" fill="#585757"/>
</svg>
