<svg width="52" height="20" viewBox="0 0 52 20" fill="none" xmlns="http://www.w3.org/2000/svg">
<rect width="52" height="20" rx="4" fill="#FFEBE6"/>
<path d="M10.2883 15.1914C8.83906 15.1914 7.68379 14.6104 6.77461 13.4141L7.88203 12.5117C8.5793 13.4072 9.30391 13.79 10.2883 13.7832C11.5256 13.79 12.2844 13.1816 12.2844 12.1973C12.2844 11.3975 11.7854 10.9736 10.343 10.5703L9.86445 10.4336C7.99824 9.93457 7.13008 9.08008 7.13008 7.75391C7.13008 6.12012 8.48359 4.91016 10.3566 4.91016C11.6691 4.91016 12.8791 5.5459 13.6652 6.63281L12.5441 7.50781C11.9631 6.72168 11.2111 6.31152 10.3566 6.31836C9.33125 6.31152 8.63398 6.89941 8.63398 7.75391C8.63398 8.41699 9.05098 8.76562 10.2473 9.08008L10.7258 9.2168C12.8518 9.80469 13.7814 10.7002 13.7883 12.1836C13.7814 13.9814 12.3732 15.1914 10.2883 15.1914ZM14.2296 9.09375V7.94531H15.4191V6.19531H16.8409V7.94531H18.5499V9.09375H16.8409V12.7578C16.8341 13.4961 17.1417 13.8311 17.839 13.8242C18.0509 13.8311 18.297 13.79 18.5499 13.7148V15.0273C18.297 15.123 17.9689 15.1914 17.5929 15.1914C16.2325 15.1914 15.4191 14.3027 15.4191 12.8262V9.09375H14.2296ZM22.8877 15.1914C20.7139 15.1914 19.1553 13.5986 19.1553 11.4727C19.1553 9.33301 20.6934 7.75391 22.751 7.75391C24.8086 7.75391 26.2373 9.33301 26.2373 11.4727C26.2373 11.6299 26.2305 11.7939 26.21 11.9512H20.6045C20.7754 13.1543 21.6846 13.9336 22.9014 13.9336C23.7969 13.9336 24.4327 13.5166 24.7608 12.8262L26.0049 13.332C25.4444 14.4668 24.3575 15.1914 22.8877 15.1914ZM20.6592 10.707H24.7471C24.6514 9.75 23.8653 9.01172 22.751 9.01172C21.6914 9.01172 20.8985 9.6748 20.6592 10.707ZM27.2666 17.9531V7.94531H28.6748V8.99805H28.7295C29.1943 8.17773 29.9531 7.75391 30.958 7.75391C32.9062 7.75391 34.3007 9.35352 34.2939 11.4727C34.3007 13.5918 32.9062 15.1914 30.958 15.1914C29.9531 15.1914 29.1875 14.7607 28.7295 13.9336H28.6748V17.9531H27.2666ZM30.7392 13.8652C31.9902 13.8721 32.8652 12.874 32.8584 11.4727C32.8652 10.0713 31.9902 9.07324 30.7392 9.08008C29.5019 9.07324 28.6201 10.0645 28.6201 11.4727C28.6201 12.8809 29.5019 13.8721 30.7392 13.8652ZM38.3484 13.6602C41.8143 11.3838 43.3797 9.62695 43.3797 8.04102C43.3797 6.91992 42.6346 6.25684 41.5477 6.26367C40.7 6.25684 40.0711 6.65332 39.7293 7.82227L38.3211 7.43945C38.8338 5.68262 40.0369 4.91016 41.5477 4.91016C43.4617 4.91016 44.8426 6.16113 44.8426 8.01367C44.8426 9.86621 43.3387 11.6709 40.6727 13.6055V13.6602H44.993V15H38.3484V13.6602Z" fill="#FF5630"/>
</svg>
