<svg width="54" height="22" viewBox="0 0 54 22" fill="none" xmlns="http://www.w3.org/2000/svg">
<rect width="54" height="22" rx="4" fill="#BC7418"/>
<path d="M24.9489 11.3379V12.3906H13.779V11.3379H18.7146V10.2852H15.2282V5.25391H23.5954V6.26562H16.5271V7.25H23.2946V8.23438H16.5271V9.25977H23.6775V10.2852H20.0134V11.3379H24.9489ZM19.3571 13.1973C22.0573 13.1973 23.6023 13.8809 23.5954 15.166C23.6023 16.4443 22.0573 17.1416 19.3571 17.1348C16.657 17.1416 15.1052 16.4443 15.1052 15.166C15.1052 13.8809 16.657 13.1973 19.3571 13.1973ZM19.3571 14.168C17.4431 14.1611 16.4245 14.5098 16.4177 15.166C16.4245 15.8291 17.4362 16.1572 19.3571 16.1641C21.2712 16.1572 22.2966 15.8291 22.2966 15.166C22.2966 14.5098 21.2644 14.1611 19.3571 14.168ZM26.9932 12.0762C26.4258 12.0762 26.0156 11.666 26.0225 11.1055C26.0156 10.5449 26.4258 10.1416 26.9932 10.1348C27.5605 10.1416 27.9707 10.5449 27.9775 11.1055C27.9707 11.666 27.5605 12.0762 26.9932 12.0762ZM39.2229 4.91211V11.1191H37.8968V9.9707H34.8069V8.95898H37.8968V7.63281H34.971C34.2122 9.52637 32.3596 10.7842 29.6389 11.4199L29.2014 10.3535C32.1477 9.69043 33.7268 8.30957 33.9319 6.52539H29.844V5.47266H35.3675C35.3675 5.86914 35.3333 6.24512 35.2718 6.60742H37.8968V4.91211H39.2229ZM39.2229 11.666V14.7695H32.5374V16H39.5921V17.0391H31.2386V13.7852H37.9104V12.7051H31.2112V11.666H39.2229Z" fill="white"/>
</svg>
