<svg width="54" height="22" viewBox="0 0 54 22" fill="none" xmlns="http://www.w3.org/2000/svg">
<rect width="54" height="22" rx="4" fill="#0295D9"/>
<path d="M13 5.09375C11.8319 5.09375 10.6899 5.44015 9.71867 6.08913C8.74739 6.73812 7.99037 7.66055 7.54334 8.73978C7.09631 9.819 6.97935 11.0066 7.20724 12.1523C7.43513 13.298 7.99765 14.3503 8.82365 15.1763C9.64966 16.0024 10.702 16.5649 11.8478 16.7928C12.9935 17.0207 14.181 16.9037 15.2602 16.4567C16.3395 16.0096 17.2619 15.2526 17.9109 14.2813C18.5599 13.3101 18.9063 12.1681 18.9063 11C18.9045 9.4341 18.2817 7.93283 17.1744 6.82557C16.0672 5.71831 14.5659 5.09549 13 5.09375ZM13 15.5938C12.0914 15.5938 11.2033 15.3243 10.4479 14.8196C9.69241 14.3148 9.10362 13.5974 8.75593 12.758C8.40824 11.9186 8.31727 10.9949 8.49452 10.1038C8.67177 9.2127 9.10928 8.39418 9.75173 7.75173C10.3942 7.10928 11.2127 6.67177 12.1038 6.49452C12.9949 6.31727 13.9186 6.40824 14.758 6.75593C15.5974 7.10362 16.3148 7.69241 16.8196 8.44785C17.3243 9.20329 17.5938 10.0914 17.5938 11C17.5924 12.2179 17.108 13.3856 16.2468 14.2468C15.3856 15.108 14.2179 15.5924 13 15.5938Z" fill="white"/>
<path d="M35.6478 10.2715V11.2695H30.7123V12.2676H34.2396V15.0566H27.1302V16.0547H34.5951V17.0391H25.8451V14.1543H32.9545V13.2383H25.8041V12.2676H29.4134V11.2695H24.5052V10.2715H35.6478ZM30.7123 4.85742V5.9375H34.5267V6.93555H30.8216C31.0677 7.9541 32.6879 8.68555 35.0873 8.80859L34.7181 9.79297C32.5648 9.64258 30.8353 9.02051 30.0697 7.96094C29.2904 9.02051 27.5541 9.64258 25.4213 9.79297L25.0384 8.80859C27.4379 8.68555 29.058 7.9541 29.3177 6.93555H25.6127V5.9375H29.4134V4.85742H30.7123ZM40.6178 6.83984C40.6246 8.47363 41.7389 10.0186 43.5709 10.6543L42.8737 11.6797C41.527 11.1875 40.5221 10.1963 39.9889 8.95898C39.4625 10.3262 38.4235 11.3926 36.9811 11.9258L36.2975 10.8867C38.2116 10.2168 39.319 8.58301 39.319 6.77148V5.54102H40.6178V6.83984ZM46.5241 12.8008V17.1621H45.1979V13.8535H38.2252V12.8008H46.5241ZM46.5241 4.91211V12.1582H45.1979V8.4668H42.6413V7.40039H45.1979V4.91211H46.5241Z" fill="white"/>
</svg>
