<svg width="54" height="22" viewBox="0 0 54 22" fill="none" xmlns="http://www.w3.org/2000/svg">
<rect width="54" height="22" rx="4" fill="#F25923"/>
<path d="M17.4018 14.4732C17.5251 14.5965 17.5943 14.7637 17.5943 14.938C17.5943 15.1124 17.5251 15.2796 17.4018 15.4029C17.2785 15.5261 17.1113 15.5954 16.937 15.5954C16.7626 15.5954 16.5954 15.5261 16.4721 15.4029L13 11.9297L9.5268 15.4018C9.40351 15.5251 9.2363 15.5943 9.06195 15.5943C8.8876 15.5943 8.72039 15.5251 8.59711 15.4018C8.47382 15.2785 8.40456 15.1113 8.40456 14.9369C8.40456 14.7626 8.47382 14.5954 8.59711 14.4721L12.0703 11L8.5982 7.52677C8.47492 7.40349 8.40566 7.23628 8.40566 7.06193C8.40566 6.88758 8.47492 6.72037 8.5982 6.59708C8.72149 6.4738 8.8887 6.40454 9.06305 6.40454C9.2374 6.40454 9.40461 6.4738 9.52789 6.59708L13 10.0703L16.4732 6.59654C16.5965 6.47325 16.7637 6.40399 16.938 6.40399C17.1124 6.40399 17.2796 6.47325 17.4029 6.59654C17.5262 6.71982 17.5954 6.88703 17.5954 7.06138C17.5954 7.23573 17.5262 7.40294 17.4029 7.52622L13.9297 11L17.4018 14.4732Z" fill="white"/>
<path d="M34.7045 4.91211V11.1191H33.3783V9.9707H30.2884V8.95898H33.3783V7.63281H30.4525C29.6937 9.52637 27.8412 10.7842 25.1205 11.4199L24.683 10.3535C27.6293 9.69043 29.2084 8.30957 29.4134 6.52539H25.3255V5.47266H30.849C30.849 5.86914 30.8148 6.24512 30.7533 6.60742H33.3783V4.91211H34.7045ZM34.7045 11.666V14.7695H28.0189V16H35.0736V17.0391H26.7201V13.7852H33.392V12.7051H26.6927V11.666H34.7045ZM40.6178 6.83984C40.6246 8.47363 41.7389 10.0186 43.5709 10.6543L42.8737 11.6797C41.527 11.1875 40.5221 10.1963 39.9889 8.95898C39.4625 10.3262 38.4235 11.3926 36.9811 11.9258L36.2975 10.8867C38.2116 10.2168 39.319 8.58301 39.319 6.77148V5.54102H40.6178V6.83984ZM46.5241 12.8008V17.1621H45.1979V13.8535H38.2252V12.8008H46.5241ZM46.5241 4.91211V12.1582H45.1979V8.4668H42.6413V7.40039H45.1979V4.91211H46.5241Z" fill="white"/>
</svg>
