<svg width="54" height="22" viewBox="0 0 54 22" fill="none" xmlns="http://www.w3.org/2000/svg">
<rect width="54" height="22" rx="4" fill="#B5BD06"/>
<path d="M18.4688 11C18.4688 11.174 18.3996 11.341 18.2765 11.464C18.1535 11.5871 17.9865 11.6562 17.8125 11.6562H8.1875C8.01345 11.6562 7.84653 11.5871 7.72346 11.464C7.60039 11.341 7.53125 11.174 7.53125 11C7.53125 10.826 7.60039 10.659 7.72346 10.536C7.84653 10.4129 8.01345 10.3438 8.1875 10.3438H17.8125C17.9865 10.3438 18.1535 10.4129 18.2765 10.536C18.3996 10.659 18.4688 10.826 18.4688 11Z" fill="white"/>
<path d="M35.6888 14.5508V15.6309H24.4916V14.5508H29.4271V11.666H30.7259V14.5508H35.6888ZM30.7533 7.14062C30.7533 9.00684 32.8656 10.6748 35.2103 11.0371L34.6771 12.0762C32.7084 11.7002 30.8832 10.5654 30.0834 8.94531C29.2836 10.5654 27.4789 11.7412 25.5306 12.1309L24.9974 11.0781C27.2943 10.7021 29.3929 9.00684 29.3998 7.14062V7.03125H25.4076V5.96484H34.7455V7.03125H30.7533V7.14062ZM43.7077 10.709V11.7617H41.069V13.5938C42.1832 13.5322 43.3043 13.4365 44.3639 13.2793L44.4596 14.2363C41.7252 14.7627 38.7243 14.7764 36.5436 14.7832L36.3659 13.6895C37.3844 13.6895 38.5465 13.6826 39.7565 13.6484V11.7617H37.2819V5.99219H43.653V7.04492H38.5944V8.33008H43.4069V9.36914H38.5944V10.709H43.7077ZM46.4284 4.91211V17.1758H45.1295V4.91211H46.4284Z" fill="white"/>
</svg>
