<svg width="54" height="22" viewBox="0 0 54 22" fill="none" xmlns="http://www.w3.org/2000/svg">
<rect width="54" height="22" rx="4" fill="#6DC066"/>
<path d="M18.7143 8.40178L11.7143 15.4018C11.6533 15.463 11.5809 15.5115 11.5011 15.5446C11.4213 15.5777 11.3358 15.5948 11.2495 15.5948C11.1631 15.5948 11.0776 15.5777 10.9978 15.5446C10.918 15.5115 10.8456 15.463 10.7846 15.4018L7.72211 12.3393C7.66106 12.2782 7.61264 12.2058 7.5796 12.126C7.54657 12.0462 7.52956 11.9608 7.52956 11.8744C7.52956 11.7881 7.54657 11.7026 7.5796 11.6229C7.61264 11.5431 7.66106 11.4706 7.72211 11.4096C7.78315 11.3485 7.85562 11.3001 7.93538 11.2671C8.01514 11.2341 8.10062 11.217 8.18695 11.217C8.27328 11.217 8.35877 11.2341 8.43852 11.2671C8.51828 11.3001 8.59075 11.3485 8.6518 11.4096L11.25 14.0078L17.7857 7.47318C17.909 7.3499 18.0762 7.28064 18.2505 7.28064C18.4249 7.28064 18.5921 7.3499 18.7154 7.47318C18.8387 7.59647 18.9079 7.76368 18.9079 7.93803C18.9079 8.11238 18.8387 8.27959 18.7154 8.40287L18.7143 8.40178Z" fill="white"/>
<path d="M29.0033 8.52148C28.9964 10.5654 30.3431 12.6777 32.2298 13.4844L31.4916 14.5234C30.0697 13.874 28.9281 12.5205 28.3607 10.8867C27.7865 12.6367 26.6449 14.127 25.2025 14.8242L24.4505 13.7852C26.3168 12.917 27.6771 10.6201 27.6771 8.52148V7.22266H24.888V6.14258H31.7923V7.22266H29.0033V8.52148ZM34.6361 4.91211V17.1621H33.3236V4.91211H34.6361ZM45.9225 4.91211V7.93359H47.6998V9.02734H45.9225V12.0625H44.6237V4.91211H45.9225ZM42.5455 5.67773C42.5387 8.81543 40.4059 11.0166 36.776 11.9805L36.2428 10.9551C39.1823 10.1826 40.9186 8.64453 41.1373 6.7168H36.817V5.67773H42.5455ZM45.9225 12.623V17.1621H44.6237V13.6758H37.8424V12.623H45.9225Z" fill="white"/>
</svg>
