<svg width="50" height="20" viewBox="0 0 50 20" fill="none" xmlns="http://www.w3.org/2000/svg">
<rect width="50" height="20" rx="4" fill="#FFEBE6"/>
<path d="M10.3479 15.1914C8.89863 15.1914 7.74336 14.6104 6.83418 13.4141L7.9416 12.5117C8.63887 13.4072 9.36348 13.79 10.3479 13.7832C11.5852 13.79 12.3439 13.1816 12.3439 12.1973C12.3439 11.3975 11.8449 10.9736 10.4025 10.5703L9.92402 10.4336C8.05781 9.93457 7.18965 9.08008 7.18965 7.75391C7.18965 6.12012 8.54316 4.91016 10.4162 4.91016C11.7287 4.91016 12.9387 5.5459 13.7248 6.63281L12.6037 7.50781C12.0227 6.72168 11.2707 6.31152 10.4162 6.31836C9.39082 6.31152 8.69355 6.89941 8.69355 7.75391C8.69355 8.41699 9.11055 8.76562 10.3068 9.08008L10.7854 9.2168C12.9113 9.80469 13.841 10.7002 13.8479 12.1836C13.841 13.9814 12.4328 15.1914 10.3479 15.1914ZM14.2892 9.09375V7.94531H15.4786V6.19531H16.9005V7.94531H18.6095V9.09375H16.9005V12.7578C16.8937 13.4961 17.2013 13.8311 17.8986 13.8242C18.1105 13.8311 18.3566 13.79 18.6095 13.7148V15.0273C18.3566 15.123 18.0284 15.1914 17.6525 15.1914C16.2921 15.1914 15.4786 14.3027 15.4786 12.8262V9.09375H14.2892ZM22.9473 15.1914C20.7735 15.1914 19.2149 13.5986 19.2149 11.4727C19.2149 9.33301 20.753 7.75391 22.8106 7.75391C24.8682 7.75391 26.2969 9.33301 26.2969 11.4727C26.2969 11.6299 26.2901 11.7939 26.2696 11.9512H20.6641C20.835 13.1543 21.7442 13.9336 22.961 13.9336C23.8565 13.9336 24.4922 13.5166 24.8204 12.8262L26.0645 13.332C25.5039 14.4668 24.417 15.1914 22.9473 15.1914ZM20.7188 10.707H24.8067C24.711 9.75 23.9248 9.01172 22.8106 9.01172C21.751 9.01172 20.958 9.6748 20.7188 10.707ZM27.3261 17.9531V7.94531H28.7343V8.99805H28.789C29.2539 8.17773 30.0127 7.75391 31.0175 7.75391C32.9658 7.75391 34.3603 9.35352 34.3535 11.4727C34.3603 13.5918 32.9658 15.1914 31.0175 15.1914C30.0127 15.1914 29.247 14.7607 28.789 13.9336H28.7343V17.9531H27.3261ZM30.7988 13.8652C32.0498 13.8721 32.9248 12.874 32.9179 11.4727C32.9248 10.0713 32.0498 9.07324 30.7988 9.08008C29.5615 9.07324 28.6796 10.0645 28.6796 11.4727C28.6796 12.8809 29.5615 13.8721 30.7988 13.8652ZM38.3396 6.86523C39.1258 6.40039 39.9119 5.81934 40.7322 5.10156H42.1678V15H40.7322V6.87891H40.6775C39.9119 7.4873 39.1121 8.02734 38.3396 8.42383V6.86523Z" fill="#FF5630"/>
</svg>
