<svg width="52" height="52" viewBox="0 0 52 52" fill="none" xmlns="http://www.w3.org/2000/svg">
<circle cx="26" cy="26" r="24" fill="#FFC400" stroke="#172B4D" style="fill:#FFC400;fill:color(display-p3 1.0000 0.7686 0.0000);fill-opacity:1;stroke:#172B4D;stroke:color(display-p3 0.0902 0.1686 0.3020);stroke-opacity:1;" stroke-width="3"/>
<path d="M18.0524 38V34.224C18.0524 30 21.5084 27.664 24.6124 25.776C27.2044 24.176 29.4124 22.896 29.4124 21.008C29.4124 19.376 28.2284 18.224 26.0844 18.224C23.9404 18.224 22.4044 19.632 21.6364 21.52L17.6364 19.568C19.2044 16.4 22.1804 14.32 26.1484 14.32C31.0764 14.32 33.9564 17.264 33.9564 21.04C33.9564 24.816 30.7884 26.832 27.8124 28.624C25.2524 30.192 22.8844 31.568 22.7564 33.712H33.8604V38H18.0524Z" fill="#172B4D" style="fill:#172B4D;fill:color(display-p3 0.0902 0.1686 0.3020);fill-opacity:1;"/>
</svg>
