<svg width="52" height="52" viewBox="0 0 52 52" fill="none" xmlns="http://www.w3.org/2000/svg">
<circle cx="26" cy="26" r="24" fill="#FFC400" stroke="#172B4D" style="fill:#FFC400;fill:color(display-p3 1.0000 0.7686 0.0000);fill-opacity:1;stroke:#172B4D;stroke:color(display-p3 0.0902 0.1686 0.3020);stroke-opacity:1;" stroke-width="3"/>
<path d="M26.7758 38.32C24.0878 38.32 21.9118 37.36 20.2798 35.376C18.8078 33.552 17.9758 31.248 17.9758 26.928C17.9758 18.736 22.4558 14.32 29.3998 14.32C31.2238 14.32 32.9198 14.64 34.0078 15.056L32.2798 19.184C31.5438 18.832 30.3278 18.544 29.0158 18.544C25.2718 18.544 22.8078 20.656 22.2638 24.944C23.3838 23.216 25.2078 22.224 27.6718 22.224C32.0558 22.224 35.2878 25.424 35.2878 30.128C35.2878 34.832 31.6398 38.32 26.7758 38.32ZM26.7438 34.16C29.0798 34.16 30.8398 32.464 30.8398 30.128C30.8398 27.792 29.1438 26.128 26.7438 26.128C24.5038 26.128 22.7118 27.792 22.7118 30.16C22.7118 32.464 24.5038 34.16 26.7438 34.16Z" fill="#172B4D" style="fill:#172B4D;fill:color(display-p3 0.0902 0.1686 0.3020);fill-opacity:1;"/>
</svg>
