<svg width="52" height="52" viewBox="0 0 52 52" fill="none" xmlns="http://www.w3.org/2000/svg">
<circle cx="26" cy="26" r="24" fill="#FFC400" stroke="#172B4D" style="fill:#FFC400;fill:color(display-p3 1.0000 0.7686 0.0000);fill-opacity:1;stroke:#172B4D;stroke:color(display-p3 0.0902 0.1686 0.3020);stroke-opacity:1;" stroke-width="3"/>
<path d="M23.8229 38.352C21.3589 38.352 19.2149 37.808 17.5829 36.816L19.8869 32.752C20.9109 33.488 22.3829 34.032 23.8229 34.032C27.6629 34.032 29.6469 31.984 30.0309 27.504C29.0069 29.232 27.2469 30.16 24.8469 30.16C20.8149 30.16 17.4229 27.024 17.4229 22.32C17.4229 17.712 20.9749 14.32 25.7429 14.32C28.5589 14.32 30.6389 15.472 32.2069 17.36C33.5829 19.088 34.3189 21.424 34.3189 25.68C34.3189 33.616 30.8629 38.352 23.8229 38.352ZM25.8069 26.16C27.9829 26.16 29.7109 24.496 29.7109 22.32C29.7109 20.144 27.9189 18.448 25.7749 18.448C23.5989 18.448 21.8709 20.144 21.8709 22.32C21.8709 24.528 23.5989 26.16 25.8069 26.16Z" fill="#172B4D" style="fill:#172B4D;fill:color(display-p3 0.0902 0.1686 0.3020);fill-opacity:1;"/>
</svg>
