<svg width="52" height="52" viewBox="0 0 52 52" fill="none" xmlns="http://www.w3.org/2000/svg">
<circle cx="26" cy="26" r="24" fill="#FFC400" stroke="#172B4D" style="fill:#FFC400;fill:color(display-p3 1.0000 0.7686 0.0000);fill-opacity:1;stroke:#172B4D;stroke:color(display-p3 0.0902 0.1686 0.3020);stroke-opacity:1;" stroke-width="3"/>
<path d="M26.4556 38.32C22.5196 38.32 19.7356 36.56 18.1356 33.968L22.5196 31.504C23.1596 32.976 24.4716 34.128 26.4556 34.128C28.5356 34.128 30.1356 32.528 30.1356 30.352C30.1356 28.08 28.5996 26.512 26.3596 26.512C24.5356 26.512 23.3196 27.536 22.5836 28.848L18.3916 27.152L20.2796 14.64H33.1756V18.832H23.7676L22.9676 23.76C23.9276 22.992 25.3036 22.416 26.9996 22.416C31.3836 22.416 34.7116 25.264 34.7116 30.448C34.7116 35.056 31.3516 38.32 26.4556 38.32Z" fill="#172B4D" style="fill:#172B4D;fill:color(display-p3 0.0902 0.1686 0.3020);fill-opacity:1;"/>
</svg>
