<svg width="52" height="52" viewBox="0 0 52 52" fill="none" xmlns="http://www.w3.org/2000/svg">
<circle cx="26" cy="26" r="24" fill="#FFC400" stroke="#172B4D" style="fill:#FFC400;fill:color(display-p3 1.0000 0.7686 0.0000);fill-opacity:1;stroke:#172B4D;stroke:color(display-p3 0.0902 0.1686 0.3020);stroke-opacity:1;" stroke-width="3"/>
<path d="M26.0381 38.32C21.9101 38.32 19.3501 37.008 17.3341 34.32L21.1101 31.536C22.2621 33.424 23.8941 34.224 26.0381 34.224C28.3421 34.224 29.9741 33.008 29.9741 31.056C29.9741 29.2 28.3421 28.08 25.9101 28.08H23.3181V24.016H25.7181C28.1821 24.016 29.4621 22.704 29.4621 20.976C29.4621 19.44 28.3101 18.16 25.9101 18.16C23.7981 18.16 22.4221 19.088 21.5261 20.72L17.7821 18.48C19.4781 15.888 22.2941 14.32 25.8781 14.32C30.9021 14.32 33.9421 16.944 33.9421 20.848C33.9421 22.992 32.8861 24.72 31.1901 25.84C33.2381 26.896 34.5181 28.656 34.5181 31.152C34.5181 35.216 31.3181 38.32 26.0381 38.32Z" fill="#172B4D" style="fill:#172B4D;fill:color(display-p3 0.0902 0.1686 0.3020);fill-opacity:1;"/>
</svg>
