<svg width="52" height="52" viewBox="0 0 52 52" fill="none" xmlns="http://www.w3.org/2000/svg">
<circle cx="26" cy="26" r="24" fill="#FFC400" stroke="#172B4D" style="fill:#FFC400;fill:color(display-p3 1.0000 0.7686 0.0000);fill-opacity:1;stroke:#172B4D;stroke:color(display-p3 0.0902 0.1686 0.3020);stroke-opacity:1;" stroke-width="3"/>
<path d="M26.0138 38.32C20.5738 38.32 17.4378 35.472 17.4378 30.992C17.4378 28.688 18.5898 26.8 20.4458 25.552C19.1658 24.432 18.3018 22.896 18.3018 21.008C18.3018 16.944 21.4378 14.32 26.0778 14.32C30.6218 14.32 33.7898 16.944 33.7898 21.008C33.7898 22.896 32.9897 24.464 31.6778 25.584C33.4698 26.8 34.5578 28.656 34.5578 30.992C34.5578 35.472 31.3578 38.32 26.0138 38.32ZM26.0138 34.352C28.7978 34.352 30.2698 32.848 30.2698 30.992C30.2698 29.136 28.8298 27.632 26.0778 27.632C23.2938 27.632 21.7898 29.136 21.7898 30.992C21.7898 32.848 23.2298 34.352 26.0138 34.352ZM26.0458 23.952C28.5098 23.952 29.6938 22.736 29.6938 21.04C29.6938 19.408 28.5098 18.096 26.1098 18.096C23.6778 18.096 22.4298 19.408 22.4298 21.04C22.4298 22.704 23.4858 23.952 26.0458 23.952Z" fill="#172B4D" style="fill:#172B4D;fill:color(display-p3 0.0902 0.1686 0.3020);fill-opacity:1;"/>
</svg>
