<svg width="36" height="20" viewBox="0 0 36 20" fill="none" xmlns="http://www.w3.org/2000/svg">
<rect width="36" height="20" rx="4" fill="#FFEBE6"/>
<path d="M16.6771 3.91211V10.2422H15.3646V3.91211H16.6771ZM16.6771 10.8027V13.8516H9.85484V15H17.1009V16.0391H8.55602V12.8809H15.3783V11.8281H8.52867V10.8027H16.6771ZM13.6693 4.71875V5.74414H12.5209V8.62891C13.1088 8.58789 13.683 8.5332 14.2298 8.46484L14.2982 9.42188C11.8441 9.79785 8.99352 9.87305 6.84703 9.88672L6.69664 8.82031L8.18688 8.80664V5.74414H7.03844V4.71875H13.6693ZM9.44469 8.7793C10.0394 8.76562 10.641 8.74512 11.2494 8.71094V5.74414H9.44469V8.7793ZM24.5866 4.97852C24.5866 6.5918 26.5758 8.12988 28.9616 8.47852L28.442 9.53125C26.4528 9.20312 24.7028 8.15723 23.9166 6.71484C23.1168 8.16406 21.3668 9.20312 19.3639 9.53125L18.8307 8.47852C21.2438 8.12988 23.2125 6.62598 23.2194 4.97852V4.32227H24.5866V4.97852ZM29.4811 10.7344V11.8145H24.5045V16.1621H23.2194V11.8145H18.3112V10.7344H29.4811Z" fill="#FF5630"/>
</svg>
