<svg width="169" height="47" viewBox="0 0 169 47" fill="none" xmlns="http://www.w3.org/2000/svg">
<path d="M8 1H161C164.866 1 168 4.13401 168 8V46H1V8C1 4.13401 4.13401 1 8 1Z" fill="#0099CC" stroke="#0099CC" stroke-width="2"/>
<path d="M32.2245 18.2348C30.8322 20.547 28.114 22.279 24.4179 22.8094L23.2411 20.3978C28.0891 19.7928 30.6499 17.0083 30.6582 14.489V13.453H33.7991V14.489C33.7991 17.0083 36.3681 19.7928 41.2494 20.3978L40.0809 22.8094C36.3516 22.279 33.6168 20.547 32.2245 18.2348ZM22.4869 24.4254H41.9455V26.8619H33.6333V34.163H30.6748V26.8619H22.4869V24.4254ZM58.2208 17.5718V12.8149H61.2043V24.2928H58.2208V19.9503H54.6739C54.1186 22.2956 51.9225 23.8867 49.1711 23.8867C45.8893 23.8867 43.4777 21.7569 43.4943 18.7818C43.4777 15.8564 45.8893 13.7182 49.1711 13.7348C51.8976 13.7182 54.0772 15.2845 54.6656 17.5718H58.2208ZM49.1711 21.384C50.7954 21.384 51.9556 20.3729 51.9722 18.7818C51.9556 17.1906 50.7954 16.2127 49.1711 16.221C47.5054 16.2127 46.3286 17.1906 46.3286 18.7818C46.3286 20.3729 47.5054 21.384 49.1711 21.384ZM49.917 27.2845H58.2208V25.2293H61.2043V33.9227H46.975V25.2293H49.917V27.2845ZM49.917 31.5028H58.2208V29.5801H49.917V31.5028ZM79.6343 34.163V12.8149H82.452V34.163H79.6343ZM73.0376 18.4503H75.1757V13.3039H78.0017V33.2099H75.1757V26.1823H72.1509V23.7624H75.1757V20.8785H72.5404C71.5459 24.3923 69.3746 27.3591 65.3967 29.7127L63.6481 27.616C67.9575 25.0552 69.8636 21.9475 70.2779 17.7624H64.8829V15.3591H73.2365C73.2365 16.4282 73.1702 17.4558 73.0376 18.4503ZM93.2328 14.4061H98.0809V16.5773H85.4428V14.4061H90.2494V12.6823H93.2328V14.4061ZM99.5975 27.2762V12.8646H102.631V27.2762H99.5975ZM98.2715 23.9696L98.487 25.9834C93.9455 26.7624 88.9566 26.837 85.1942 26.837L84.8047 24.5746C86.4538 24.5746 88.3102 24.5663 90.2494 24.5166V23.3729C87.8875 23.0497 86.4041 21.9392 86.4207 20.2983C86.4041 18.326 88.5339 17.058 91.766 17.0663C94.9152 17.058 97.0864 18.326 97.0947 20.2983C97.0864 21.9392 95.5698 23.058 93.2328 23.3729V24.4006C94.9483 24.3094 96.6555 24.1685 98.2715 23.9696ZM89.2964 20.2983C89.2964 21.0773 90.2411 21.4834 91.766 21.4751C93.2245 21.4834 94.2273 21.0773 94.2356 20.2983C94.2273 19.4696 93.2245 19.0552 91.766 19.0552C90.2411 19.0552 89.2964 19.4696 89.2964 20.2983ZM99.5975 30.4088H87.7964V28.1133H102.631V34.163H99.5975V30.4088ZM117.116 20.4558V18.0193H120.447V12.8149H123.431V25.4945H120.447V20.4558H117.116ZM112.028 20.721C111.099 22.8923 109.392 24.6326 106.865 25.5028L105.315 23.1326C108.795 21.9724 110.395 19.1961 110.461 16.5193H106.185V14.116H117.754V16.5193H113.503C113.577 18.9972 115.102 21.5 118.409 22.5939L116.934 24.9475C114.58 24.1768 112.964 22.6354 112.028 20.721ZM116.138 25.9669C120.696 25.9669 123.481 27.4917 123.489 30.0773C123.481 32.663 120.696 34.1796 116.138 34.1878C111.597 34.1796 108.804 32.663 108.812 30.0773C108.804 27.4917 111.597 25.9669 116.138 25.9669ZM116.138 31.9006C118.972 31.9088 120.514 31.2956 120.522 30.0773C120.514 28.8508 118.972 28.2376 116.138 28.2376C113.312 28.2376 111.779 28.8508 111.787 30.0773C111.779 31.2956 113.312 31.9088 116.138 31.9006ZM137.386 25.2956V29.2486H145.706V31.6768H126.198V29.2486H134.427V25.2956H128.261V14.1823H131.261V17.5055H140.56V14.1823H143.543V25.2956H137.386ZM140.56 19.8757H131.261V22.9088H140.56V19.8757Z" fill="white"/>
</svg>
